<?xml version="1.0" standalone="no"?>
<!DOCTYPE svg PUBLIC "-//W3C//DTD SVG 20010904//EN"
 "http://www.w3.org/TR/2001/REC-SVG-20010904/DTD/svg10.dtd">
<svg version="1.0" xmlns="http://www.w3.org/2000/svg"
 width="24.000000pt" height="24.000000pt" viewBox="0 0 24.000000 24.000000"
 preserveAspectRatio="xMidYMid meet">

<g transform="translate(0.000000,24.000000) scale(0.100000,-0.100000)"
fill="#000000" stroke="none">
<path d="M16 224 c-12 -12 -16 -37 -16 -104 0 -116 4 -120 120 -120 116 0 120
4 120 120 0 116 -4 120 -120 120 -67 0 -92 -4 -104 -16z m155 -55 c8 -15 8
-24 0 -32 -7 -7 -7 -14 0 -23 6 -7 9 -23 7 -36 -3 -21 -9 -23 -60 -26 l-58 -3
0 71 0 70 50 0 c40 0 51 -4 61 -21z"/>
<path d="M90 150 c0 -17 5 -21 28 -18 36 4 36 32 0 36 -23 3 -28 -1 -28 -18z"/>
<path d="M90 90 c0 -16 7 -20 30 -20 23 0 30 4 30 20 0 16 -7 20 -30 20 -23 0
-30 -4 -30 -20z"/>
</g>
</svg>
